<mxfile host="app.diagrams.net" modified="2020-06-26T10:37:46.359Z" agent="5.0 (X11; Linux x86_64) AppleWebKit/537.36 (KHTML, like Gecko) Chrome/81.0.4044.138 Safari/537.36" etag="0SUKq-u4929MJAM-EWbr" version="13.3.5" type="github">
  <diagram name="Page-1" id="e7e014a7-5840-1c2e-5031-d8a46d1fe8dd">
    <mxGraphModel dx="1595" dy="806" grid="1" gridSize="10" guides="1" tooltips="1" connect="1" arrows="1" fold="1" page="1" pageScale="1" pageWidth="1169" pageHeight="826" background="#ffffff" math="0" shadow="0">
      <root>
        <mxCell id="0" />
        <mxCell id="1" parent="0" />
        <mxCell id="NVmWN9BRrccC6ATT81_o-57" value="&lt;&lt;Fish&gt;&gt;" style="swimlane;fontStyle=1;align=center;verticalAlign=top;childLayout=stackLayout;horizontal=1;startSize=26;horizontalStack=0;resizeParent=1;resizeParentMax=0;resizeLast=0;collapsible=1;marginBottom=0;" parent="1" vertex="1">
          <mxGeometry x="820" y="400" width="160" height="60" as="geometry" />
        </mxCell>
        <mxCell id="NVmWN9BRrccC6ATT81_o-59" value="" style="line;strokeWidth=1;fillColor=none;align=left;verticalAlign=middle;spacingTop=-1;spacingLeft=3;spacingRight=3;rotatable=0;labelPosition=right;points=[];portConstraint=eastwest;" parent="NVmWN9BRrccC6ATT81_o-57" vertex="1">
          <mxGeometry y="26" width="160" height="8" as="geometry" />
        </mxCell>
        <mxCell id="NVmWN9BRrccC6ATT81_o-60" value="+ getBreathOrgan():String" style="text;strokeColor=none;fillColor=none;align=left;verticalAlign=top;spacingLeft=4;spacingRight=4;overflow=hidden;rotatable=0;points=[[0,0.5],[1,0.5]];portConstraint=eastwest;" parent="NVmWN9BRrccC6ATT81_o-57" vertex="1">
          <mxGeometry y="34" width="160" height="26" as="geometry" />
        </mxCell>
        <mxCell id="NVmWN9BRrccC6ATT81_o-77" value="&lt;&lt;Mammal&gt;&gt;" style="swimlane;fontStyle=1;align=center;verticalAlign=top;childLayout=stackLayout;horizontal=1;startSize=26;horizontalStack=0;resizeParent=1;resizeParentMax=0;resizeLast=0;collapsible=1;marginBottom=0;" parent="1" vertex="1">
          <mxGeometry x="210" y="390" width="160" height="66" as="geometry" />
        </mxCell>
        <mxCell id="NVmWN9BRrccC6ATT81_o-79" value="" style="line;strokeWidth=1;fillColor=none;align=left;verticalAlign=middle;spacingTop=-1;spacingLeft=3;spacingRight=3;rotatable=0;labelPosition=right;points=[];portConstraint=eastwest;" parent="NVmWN9BRrccC6ATT81_o-77" vertex="1">
          <mxGeometry y="26" width="160" height="8" as="geometry" />
        </mxCell>
        <mxCell id="NVmWN9BRrccC6ATT81_o-80" value="+ getBreathOrgan():String" style="text;strokeColor=none;fillColor=none;align=left;verticalAlign=top;spacingLeft=4;spacingRight=4;overflow=hidden;rotatable=0;points=[[0,0.5],[1,0.5]];portConstraint=eastwest;" parent="NVmWN9BRrccC6ATT81_o-77" vertex="1">
          <mxGeometry y="34" width="160" height="32" as="geometry" />
        </mxCell>
        <mxCell id="NVmWN9BRrccC6ATT81_o-45" value="&lt;&lt;Animal&gt;&gt;" style="swimlane;fontStyle=1;align=center;verticalAlign=top;childLayout=stackLayout;horizontal=1;startSize=26;horizontalStack=0;resizeParent=1;resizeParentMax=0;resizeLast=0;collapsible=1;marginBottom=0;" parent="1" vertex="1">
          <mxGeometry x="449" y="190" width="160" height="140" as="geometry">
            <mxRectangle x="450" y="200" width="100" height="26" as="alternateBounds" />
          </mxGeometry>
        </mxCell>
        <mxCell id="NVmWN9BRrccC6ATT81_o-46" value="- name: String&#xa;- mass: double&#xa;&#xa;" style="text;strokeColor=none;fillColor=none;align=left;verticalAlign=top;spacingLeft=4;spacingRight=4;overflow=hidden;rotatable=0;points=[[0,0.5],[1,0.5]];portConstraint=eastwest;" parent="NVmWN9BRrccC6ATT81_o-45" vertex="1">
          <mxGeometry y="26" width="160" height="34" as="geometry" />
        </mxCell>
        <mxCell id="NVmWN9BRrccC6ATT81_o-47" value="" style="line;strokeWidth=1;fillColor=none;align=left;verticalAlign=middle;spacingTop=-1;spacingLeft=3;spacingRight=3;rotatable=0;labelPosition=right;points=[];portConstraint=eastwest;" parent="NVmWN9BRrccC6ATT81_o-45" vertex="1">
          <mxGeometry y="60" width="160" height="8" as="geometry" />
        </mxCell>
        <mxCell id="NVmWN9BRrccC6ATT81_o-48" value="+ getName(): String&#xa;+ setName(String): void&#xa;+ getMass(): double&#xa;+ setMass(double): void" style="text;strokeColor=none;fillColor=none;align=left;verticalAlign=top;spacingLeft=4;spacingRight=4;overflow=hidden;rotatable=0;points=[[0,0.5],[1,0.5]];portConstraint=eastwest;" parent="NVmWN9BRrccC6ATT81_o-45" vertex="1">
          <mxGeometry y="68" width="160" height="72" as="geometry" />
        </mxCell>
        <mxCell id="NVmWN9BRrccC6ATT81_o-73" value="Lion" style="swimlane;fontStyle=1;align=center;verticalAlign=top;childLayout=stackLayout;horizontal=1;startSize=26;horizontalStack=0;resizeParent=1;resizeParentMax=0;resizeLast=0;collapsible=1;marginBottom=0;" parent="1" vertex="1">
          <mxGeometry x="330" y="550" width="160" height="60" as="geometry" />
        </mxCell>
        <mxCell id="NVmWN9BRrccC6ATT81_o-75" value="" style="line;strokeWidth=1;fillColor=none;align=left;verticalAlign=middle;spacingTop=-1;spacingLeft=3;spacingRight=3;rotatable=0;labelPosition=right;points=[];portConstraint=eastwest;" parent="NVmWN9BRrccC6ATT81_o-73" vertex="1">
          <mxGeometry y="26" width="160" height="8" as="geometry" />
        </mxCell>
        <mxCell id="NVmWN9BRrccC6ATT81_o-76" value="+ getInfoMovement() String" style="text;strokeColor=none;fillColor=none;align=left;verticalAlign=top;spacingLeft=4;spacingRight=4;overflow=hidden;rotatable=0;points=[[0,0.5],[1,0.5]];portConstraint=eastwest;" parent="NVmWN9BRrccC6ATT81_o-73" vertex="1">
          <mxGeometry y="34" width="160" height="26" as="geometry" />
        </mxCell>
        <mxCell id="NVmWN9BRrccC6ATT81_o-69" value="Human" style="swimlane;fontStyle=1;align=center;verticalAlign=top;childLayout=stackLayout;horizontal=1;startSize=26;horizontalStack=0;resizeParent=1;resizeParentMax=0;resizeLast=0;collapsible=1;marginBottom=0;" parent="1" vertex="1">
          <mxGeometry x="100" y="550" width="140" height="80" as="geometry" />
        </mxCell>
        <mxCell id="NVmWN9BRrccC6ATT81_o-71" value="" style="line;strokeWidth=1;fillColor=none;align=left;verticalAlign=middle;spacingTop=-1;spacingLeft=3;spacingRight=3;rotatable=0;labelPosition=right;points=[];portConstraint=eastwest;" parent="NVmWN9BRrccC6ATT81_o-69" vertex="1">
          <mxGeometry y="26" width="140" height="30" as="geometry" />
        </mxCell>
        <mxCell id="NVmWN9BRrccC6ATT81_o-72" value="+ getMovement() String" style="text;strokeColor=none;fillColor=none;align=left;verticalAlign=top;spacingLeft=4;spacingRight=4;overflow=hidden;rotatable=0;points=[[0,0.5],[1,0.5]];portConstraint=eastwest;" parent="NVmWN9BRrccC6ATT81_o-69" vertex="1">
          <mxGeometry y="56" width="140" height="24" as="geometry" />
        </mxCell>
        <mxCell id="NVmWN9BRrccC6ATT81_o-90" value="Extends" style="endArrow=block;endSize=16;endFill=0;html=1;entryX=0.261;entryY=1.042;entryDx=0;entryDy=0;entryPerimeter=0;exitX=0.446;exitY=0.002;exitDx=0;exitDy=0;exitPerimeter=0;" parent="1" source="NVmWN9BRrccC6ATT81_o-77" target="NVmWN9BRrccC6ATT81_o-48" edge="1">
          <mxGeometry width="160" relative="1" as="geometry">
            <mxPoint x="300" y="370" as="sourcePoint" />
            <mxPoint x="460" y="370" as="targetPoint" />
          </mxGeometry>
        </mxCell>
        <mxCell id="NVmWN9BRrccC6ATT81_o-91" value="Extends" style="endArrow=block;endSize=16;endFill=0;html=1;entryX=0.688;entryY=0.989;entryDx=0;entryDy=0;entryPerimeter=0;exitX=0.474;exitY=-0.038;exitDx=0;exitDy=0;exitPerimeter=0;" parent="1" source="NVmWN9BRrccC6ATT81_o-53" target="NVmWN9BRrccC6ATT81_o-48" edge="1">
          <mxGeometry width="160" relative="1" as="geometry">
            <mxPoint x="420" y="410" as="sourcePoint" />
            <mxPoint x="580" y="410" as="targetPoint" />
          </mxGeometry>
        </mxCell>
        <mxCell id="NVmWN9BRrccC6ATT81_o-92" value="Extends" style="endArrow=block;endSize=16;endFill=0;html=1;exitX=0.384;exitY=-0.018;exitDx=0;exitDy=0;exitPerimeter=0;entryX=0.938;entryY=1.122;entryDx=0;entryDy=0;entryPerimeter=0;" parent="1" source="NVmWN9BRrccC6ATT81_o-57" target="NVmWN9BRrccC6ATT81_o-48" edge="1">
          <mxGeometry width="160" relative="1" as="geometry">
            <mxPoint x="740" y="350" as="sourcePoint" />
            <mxPoint x="900" y="350" as="targetPoint" />
          </mxGeometry>
        </mxCell>
        <mxCell id="NVmWN9BRrccC6ATT81_o-81" value="Raven" style="swimlane;fontStyle=1;align=center;verticalAlign=top;childLayout=stackLayout;horizontal=1;startSize=26;horizontalStack=0;resizeParent=1;resizeParentMax=0;resizeLast=0;collapsible=1;marginBottom=0;" parent="1" vertex="1">
          <mxGeometry x="585" y="550" width="160" height="60" as="geometry" />
        </mxCell>
        <mxCell id="NVmWN9BRrccC6ATT81_o-83" value="" style="line;strokeWidth=1;fillColor=none;align=left;verticalAlign=middle;spacingTop=-1;spacingLeft=3;spacingRight=3;rotatable=0;labelPosition=right;points=[];portConstraint=eastwest;" parent="NVmWN9BRrccC6ATT81_o-81" vertex="1">
          <mxGeometry y="26" width="160" height="8" as="geometry" />
        </mxCell>
        <mxCell id="NVmWN9BRrccC6ATT81_o-84" value="+ getInfoMovement() String" style="text;strokeColor=none;fillColor=none;align=left;verticalAlign=top;spacingLeft=4;spacingRight=4;overflow=hidden;rotatable=0;points=[[0,0.5],[1,0.5]];portConstraint=eastwest;" parent="NVmWN9BRrccC6ATT81_o-81" vertex="1">
          <mxGeometry y="34" width="160" height="26" as="geometry" />
        </mxCell>
        <mxCell id="NVmWN9BRrccC6ATT81_o-85" value="Piranha" style="swimlane;fontStyle=1;align=center;verticalAlign=top;childLayout=stackLayout;horizontal=1;startSize=26;horizontalStack=0;resizeParent=1;resizeParentMax=0;resizeLast=0;collapsible=1;marginBottom=0;" parent="1" vertex="1">
          <mxGeometry x="860" y="550" width="160" height="60" as="geometry" />
        </mxCell>
        <mxCell id="NVmWN9BRrccC6ATT81_o-87" value="" style="line;strokeWidth=1;fillColor=none;align=left;verticalAlign=middle;spacingTop=-1;spacingLeft=3;spacingRight=3;rotatable=0;labelPosition=right;points=[];portConstraint=eastwest;" parent="NVmWN9BRrccC6ATT81_o-85" vertex="1">
          <mxGeometry y="26" width="160" height="8" as="geometry" />
        </mxCell>
        <mxCell id="NVmWN9BRrccC6ATT81_o-88" value="+ getMovement() String" style="text;strokeColor=none;fillColor=none;align=left;verticalAlign=top;spacingLeft=4;spacingRight=4;overflow=hidden;rotatable=0;points=[[0,0.5],[1,0.5]];portConstraint=eastwest;" parent="NVmWN9BRrccC6ATT81_o-85" vertex="1">
          <mxGeometry y="34" width="160" height="26" as="geometry" />
        </mxCell>
        <mxCell id="NVmWN9BRrccC6ATT81_o-94" value="Extends" style="endArrow=block;endSize=16;endFill=0;html=1;exitX=0.5;exitY=0;exitDx=0;exitDy=0;entryX=0.433;entryY=1.013;entryDx=0;entryDy=0;entryPerimeter=0;" parent="1" source="NVmWN9BRrccC6ATT81_o-69" target="NVmWN9BRrccC6ATT81_o-80" edge="1">
          <mxGeometry width="160" relative="1" as="geometry">
            <mxPoint x="160" y="520" as="sourcePoint" />
            <mxPoint x="320" y="520" as="targetPoint" />
          </mxGeometry>
        </mxCell>
        <mxCell id="NVmWN9BRrccC6ATT81_o-95" value="Extends" style="endArrow=block;endSize=16;endFill=0;html=1;exitX=0.433;exitY=-0.03;exitDx=0;exitDy=0;exitPerimeter=0;entryX=0.705;entryY=1.093;entryDx=0;entryDy=0;entryPerimeter=0;" parent="1" source="NVmWN9BRrccC6ATT81_o-73" target="NVmWN9BRrccC6ATT81_o-80" edge="1">
          <mxGeometry width="160" relative="1" as="geometry">
            <mxPoint x="400" y="540" as="sourcePoint" />
            <mxPoint x="560" y="540" as="targetPoint" />
          </mxGeometry>
        </mxCell>
        <mxCell id="NVmWN9BRrccC6ATT81_o-96" value="Extends" style="endArrow=block;endSize=16;endFill=0;html=1;exitX=0.25;exitY=0;exitDx=0;exitDy=0;entryX=0.599;entryY=1.069;entryDx=0;entryDy=0;entryPerimeter=0;" parent="1" source="NVmWN9BRrccC6ATT81_o-81" target="NVmWN9BRrccC6ATT81_o-56" edge="1">
          <mxGeometry width="160" relative="1" as="geometry">
            <mxPoint x="570" y="500" as="sourcePoint" />
            <mxPoint x="730" y="500" as="targetPoint" />
          </mxGeometry>
        </mxCell>
        <mxCell id="NVmWN9BRrccC6ATT81_o-97" value="Extends" style="endArrow=block;endSize=16;endFill=0;html=1;exitX=0.358;exitY=-0.022;exitDx=0;exitDy=0;exitPerimeter=0;entryX=0.5;entryY=1;entryDx=0;entryDy=0;" parent="1" source="NVmWN9BRrccC6ATT81_o-85" target="NVmWN9BRrccC6ATT81_o-57" edge="1">
          <mxGeometry width="160" relative="1" as="geometry">
            <mxPoint x="910" y="530" as="sourcePoint" />
            <mxPoint x="1070" y="530" as="targetPoint" />
          </mxGeometry>
        </mxCell>
        <mxCell id="NVmWN9BRrccC6ATT81_o-53" value="&lt;&lt;Bird&gt;&gt;" style="swimlane;fontStyle=1;align=center;verticalAlign=top;childLayout=stackLayout;horizontal=1;startSize=26;horizontalStack=0;resizeParent=1;resizeParentMax=0;resizeLast=0;collapsible=1;marginBottom=0;" parent="1" vertex="1">
          <mxGeometry x="480" y="400" width="160" height="60" as="geometry" />
        </mxCell>
        <mxCell id="NVmWN9BRrccC6ATT81_o-55" value="" style="line;strokeWidth=1;fillColor=none;align=left;verticalAlign=middle;spacingTop=-1;spacingLeft=3;spacingRight=3;rotatable=0;labelPosition=right;points=[];portConstraint=eastwest;" parent="NVmWN9BRrccC6ATT81_o-53" vertex="1">
          <mxGeometry y="26" width="160" height="8" as="geometry" />
        </mxCell>
        <mxCell id="NVmWN9BRrccC6ATT81_o-56" value="+ getBreathOrgan():String" style="text;strokeColor=none;fillColor=none;align=left;verticalAlign=top;spacingLeft=4;spacingRight=4;overflow=hidden;rotatable=0;points=[[0,0.5],[1,0.5]];portConstraint=eastwest;" parent="NVmWN9BRrccC6ATT81_o-53" vertex="1">
          <mxGeometry y="34" width="160" height="26" as="geometry" />
        </mxCell>
        <mxCell id="NVmWN9BRrccC6ATT81_o-101" value="&lt;&lt;Interface&gt;&gt; Movable" style="swimlane;fontStyle=1;align=center;verticalAlign=top;childLayout=stackLayout;horizontal=1;startSize=26;horizontalStack=0;resizeParent=1;resizeParentMax=0;resizeLast=0;collapsible=1;marginBottom=0;" parent="1" vertex="1">
          <mxGeometry x="310" y="50" width="160" height="60" as="geometry" />
        </mxCell>
        <mxCell id="NVmWN9BRrccC6ATT81_o-103" value="" style="line;strokeWidth=1;fillColor=none;align=left;verticalAlign=middle;spacingTop=-1;spacingLeft=3;spacingRight=3;rotatable=0;labelPosition=right;points=[];portConstraint=eastwest;" parent="NVmWN9BRrccC6ATT81_o-101" vertex="1">
          <mxGeometry y="26" width="160" height="8" as="geometry" />
        </mxCell>
        <mxCell id="NVmWN9BRrccC6ATT81_o-104" value="+ getMovement()" style="text;strokeColor=none;fillColor=none;align=left;verticalAlign=top;spacingLeft=4;spacingRight=4;overflow=hidden;rotatable=0;points=[[0,0.5],[1,0.5]];portConstraint=eastwest;" parent="NVmWN9BRrccC6ATT81_o-101" vertex="1">
          <mxGeometry y="34" width="160" height="26" as="geometry" />
        </mxCell>
        <mxCell id="NVmWN9BRrccC6ATT81_o-106" value="&lt;&lt;Interface&gt;&gt;Breathable" style="swimlane;fontStyle=1;align=center;verticalAlign=top;childLayout=stackLayout;horizontal=1;startSize=26;horizontalStack=0;resizeParent=1;resizeParentMax=0;resizeLast=0;collapsible=1;marginBottom=0;" parent="1" vertex="1">
          <mxGeometry x="530" y="50" width="160" height="60" as="geometry" />
        </mxCell>
        <mxCell id="NVmWN9BRrccC6ATT81_o-108" value="" style="line;strokeWidth=1;fillColor=none;align=left;verticalAlign=middle;spacingTop=-1;spacingLeft=3;spacingRight=3;rotatable=0;labelPosition=right;points=[];portConstraint=eastwest;" parent="NVmWN9BRrccC6ATT81_o-106" vertex="1">
          <mxGeometry y="26" width="160" height="8" as="geometry" />
        </mxCell>
        <mxCell id="NVmWN9BRrccC6ATT81_o-109" value="+getBreathOrgan()" style="text;strokeColor=none;fillColor=none;align=left;verticalAlign=top;spacingLeft=4;spacingRight=4;overflow=hidden;rotatable=0;points=[[0,0.5],[1,0.5]];portConstraint=eastwest;" parent="NVmWN9BRrccC6ATT81_o-106" vertex="1">
          <mxGeometry y="34" width="160" height="26" as="geometry" />
        </mxCell>
        <mxCell id="NVmWN9BRrccC6ATT81_o-115" value="" style="endArrow=block;dashed=1;endFill=0;endSize=12;html=1;entryX=0.459;entryY=1.114;entryDx=0;entryDy=0;entryPerimeter=0;exitX=0.194;exitY=0;exitDx=0;exitDy=0;exitPerimeter=0;" parent="1" source="NVmWN9BRrccC6ATT81_o-45" target="NVmWN9BRrccC6ATT81_o-104" edge="1">
          <mxGeometry width="160" relative="1" as="geometry">
            <mxPoint x="350" y="170" as="sourcePoint" />
            <mxPoint x="510" y="170" as="targetPoint" />
          </mxGeometry>
        </mxCell>
        <mxCell id="NVmWN9BRrccC6ATT81_o-116" value="" style="endArrow=block;dashed=1;endFill=0;endSize=12;html=1;exitX=0.53;exitY=-0.018;exitDx=0;exitDy=0;exitPerimeter=0;entryX=0.567;entryY=1.088;entryDx=0;entryDy=0;entryPerimeter=0;" parent="1" source="NVmWN9BRrccC6ATT81_o-45" target="NVmWN9BRrccC6ATT81_o-109" edge="1">
          <mxGeometry width="160" relative="1" as="geometry">
            <mxPoint x="530" y="150" as="sourcePoint" />
            <mxPoint x="690" y="150" as="targetPoint" />
          </mxGeometry>
        </mxCell>
        <mxCell id="NVmWN9BRrccC6ATT81_o-41" value="Main" style="swimlane;fontStyle=1;align=center;verticalAlign=top;childLayout=stackLayout;horizontal=1;startSize=26;horizontalStack=0;resizeParent=1;resizeParentMax=0;resizeLast=0;collapsible=1;marginBottom=0;" parent="1" vertex="1">
          <mxGeometry x="820" y="130" width="160" height="86" as="geometry" />
        </mxCell>
        <mxCell id="NVmWN9BRrccC6ATT81_o-42" value="+ field: type" style="text;strokeColor=none;fillColor=none;align=left;verticalAlign=top;spacingLeft=4;spacingRight=4;overflow=hidden;rotatable=0;points=[[0,0.5],[1,0.5]];portConstraint=eastwest;" parent="NVmWN9BRrccC6ATT81_o-41" vertex="1">
          <mxGeometry y="26" width="160" height="26" as="geometry" />
        </mxCell>
        <mxCell id="NVmWN9BRrccC6ATT81_o-43" value="" style="line;strokeWidth=1;fillColor=none;align=left;verticalAlign=middle;spacingTop=-1;spacingLeft=3;spacingRight=3;rotatable=0;labelPosition=right;points=[];portConstraint=eastwest;" parent="NVmWN9BRrccC6ATT81_o-41" vertex="1">
          <mxGeometry y="52" width="160" height="8" as="geometry" />
        </mxCell>
        <mxCell id="NVmWN9BRrccC6ATT81_o-44" value="+ method(type): type" style="text;strokeColor=none;fillColor=none;align=left;verticalAlign=top;spacingLeft=4;spacingRight=4;overflow=hidden;rotatable=0;points=[[0,0.5],[1,0.5]];portConstraint=eastwest;" parent="NVmWN9BRrccC6ATT81_o-41" vertex="1">
          <mxGeometry y="60" width="160" height="26" as="geometry" />
        </mxCell>
      </root>
    </mxGraphModel>
  </diagram>
</mxfile>
